<svg xmlns="http://www.w3.org/2000/svg" width="94" height="64" viewBox="0 0 94 64">
    <g fill="none" fill-rule="evenodd">
        <path d="M-1-16h96v96H-1z"/>
        <path fill="#FFF" fill-rule="nonzero" d="M92.398 34.222c1.119 2.41.087 5.272-2.306 6.394L43.27 62.549c-2.395 1.122-5.238.078-6.358-2.334l-13.99-30.14c-1.118-2.409-.087-5.271 2.307-6.393L72.05 1.75c2.394-1.122 5.238-.078 6.358 2.334l13.99 30.139z"/>
        <path fill="#000" fill-opacity=".1" d="M27.903 31.67a4.009 4.009 0 0 1 1.94-5.322l44.395-20.7a4.002 4.002 0 0 1 5.324 1.932l12.492 26.788a4.009 4.009 0 0 1-1.942 5.32L45.718 60.39a4.002 4.002 0 0 1-5.324-1.933L27.903 31.67z"/>
        <path fill="#000" fill-rule="nonzero" d="M93.532 34.15c1.16 2.5.09 5.469-2.393 6.632l-48.565 22.75c-2.484 1.164-5.434.081-6.595-2.421L21.469 29.85c-1.161-2.5-.091-5.469 2.392-6.632L72.426.468C74.91-.697 77.86.386 79.021 2.888l14.51 31.261zM77.677 4.714l-.456-.982a2.97 2.97 0 0 0-3.955-1.456L24.7 25.026c-1.487.697-2.13 2.478-1.432 3.98l.13.281.296.507c.015.032.12.167.36.362.477.385 1.202.746 2.237 1.033.933.258 7.88 1.466 18.253 3.193a4584.42 4584.42 0 0 0 15.25 2.512c.674-1.003 1.319-2.086 2.016-3.258a3899.1 3899.1 0 0 0 5.905-9.956c5.335-9.03 8.874-15.131 9.347-16.167.445-.972.63-1.754.64-2.375a2.357 2.357 0 0 0-.025-.424zm1.435 3.091c-.07.174-.146.354-.23.539-.7 1.531-6.8 11.895-11.707 20.175l24.807 8.182a3.008 3.008 0 0 0-.25-1.708L79.112 7.805zm11.87 30.727l-24.88-8.205c-2.938 4.953-5.218 8.77-5.218 8.77s-4.639-.753-10.552-1.729l-10.057 24.63c.486.033.987-.052 1.46-.274L90.3 38.974c.252-.118.48-.268.682-.442zM38.438 61.187l9.803-24.164c-9.498-1.572-21.1-3.523-22.484-3.907-.24-.066-.466-.136-.679-.21l12.7 27.362c.166.357.392.665.66.92zM34 15l-4.3 2H1.003a1 1 0 1 1 0-2H34zM18 25a7.983 7.983 0 0 0-.468 2H6.01a1 1 0 0 1 0-2H18zm2.056 10L21 37h-9.987c-.56 0-1.013-.444-1.013-1 0-.552.448-1 1.013-1h9.043z"/>
    </g>
</svg>
