<?xml version="1.0" encoding="iso-8859-1"?>
<!-- Generator: Adobe Illustrator 19.2.0, SVG Export Plug-In . SVG Version: 6.00 Build 0)  -->
<svg version="1.1" id="Layer_1" xmlns="http://www.w3.org/2000/svg" xmlns:xlink="http://www.w3.org/1999/xlink" x="0px" y="0px"
	 viewBox="0 0 471.969 90" style="enable-background:new 0 0 471.969 90;" xml:space="preserve">
<g>
	<g>
		<g>
			<path id="XMLID_154_" style="fill:#001A96;" d="M150.921,54.877h3.058l-1.269,11.135c-4.615,2.192-10.038,3.635-17.422,3.635
				c-15.233,0-23.714-10.327-23.714-22.212c0-14.713,10.673-23.943,24.174-23.943c7.846,0,12.867,2.135,15.866,4.097l0.347,9.924
				h-3.001c-2.537-7.384-6.924-10.212-13.789-10.212c-11.136,0-15.174,8.251-15.174,17.885c0,10.731,5.019,20.654,16.501,20.654
				C144.749,65.839,148.267,62.148,150.921,54.877z"/>
			<path id="XMLID_151_" style="fill:#001A96;" d="M158.592,54.244c0-10.155,7.558-16.56,16.732-16.56
				c9.346,0,15.634,6.52,15.634,15.405c0,10.154-7.615,16.558-16.788,16.558C164.822,69.647,158.592,63.129,158.592,54.244z
				 M183.574,55.109c0-7.731-3.518-13.731-9.866-13.731c-5.366,0-7.788,4.557-7.788,10.846c0,7.73,3.576,13.73,9.865,13.73
				C181.15,65.954,183.574,61.455,183.574,55.109z"/>
			<path id="XMLID_149_" style="fill:#001A96;" d="M217.669,63.993c-2.365,2.942-6,5.654-10.787,5.654
				c-5.539,0-9.462-2.769-9.462-9.519V44.897c0-1.962-0.866-2.711-3.521-3.058l-1.036-0.173v-2.539l10.038-1.443h1.731l-0.29,5.943
				v15.52c0,3.982,2.193,5.539,5.306,5.539c3.232,0,5.828-1.616,8.021-3.289v-16.5c0-1.962-0.866-2.711-3.52-3.058l-0.982-0.173
				v-2.539l10.041-1.443h1.673l-0.29,5.943v18.52c0,1.962,0.635,2.538,3.116,2.768l1.501,0.116v2.596l-10.615,2.019h-1.214
				L217.669,63.993z"/>
			<path id="XMLID_147_" style="fill:#001A96;" d="M243.585,46.743c2.826-5.423,5.421-9.059,9.808-9.059
				c1.384,0,2.247,0.347,2.824,0.809v6.172h-2.19c-3.693,0-6.807,0.751-10.442,4.731V63.07c0,2.827,1.443,3.001,5.538,3.462v2.538
				h-16.847v-2.538c2.655-0.346,4.385-0.635,4.385-3.289V44.378l-4.097-2.251V40.57l9.231-2.942h2.077L243.585,46.743z"/>
			<path id="XMLID_145_" style="fill:#001A96;" d="M259.274,66.647l-0.347-7.674h3c1.098,4.904,3.75,7.442,8.482,7.442
				c3.806,0,6.232-1.615,6.232-4.788c0-2.655-1.905-3.635-5.077-4.501l-4.155-1.211c-4.962-1.385-8.135-3.635-8.135-9.115
				c0-5.712,4.328-9.117,11.135-9.117c4.155,0,7.443,0.924,10.096,2.481v7.039h-2.886c-0.922-4.442-3.404-6.288-7.499-6.288
				c-2.942,0-4.961,1.384-4.961,4.153c0,2.308,1.326,3.289,4.095,4.097l4.502,1.269c5.538,1.5,8.71,3.923,8.71,9.634
				c0,6.058-4.904,9.578-12.116,9.578C265.506,69.647,261.698,68.378,259.274,66.647z"/>
			<path id="XMLID_142_" style="fill:#001A96;" d="M314.601,50.032v1.731h-22.039c0,7.558,3.519,12.231,10.788,12.231
				c4.443,0,7.559-2.077,9.461-4.442l1.848,0.865c-1.384,4.5-5.424,9.231-13.616,9.231c-9.231,0-14.942-6.404-14.942-14.999
				c0-10.155,6.692-16.963,15.574-16.963C310.158,37.685,314.601,43.051,314.601,50.032z M292.737,48.763h14.767
				c0-4.155-2.424-7.385-7.209-7.385C296.027,41.378,293.313,44.436,292.737,48.763z"/>
			<path id="XMLID_116_" style="fill:#001A96;" d="M366.509,47.839h-24.114v13.847c0,3.75,1.96,4.385,6.288,4.558v2.826h-20.136
				v-2.826c4.328-0.173,6.29-0.808,6.29-4.558V31.455c0-3.75-1.961-4.385-6.29-4.559V24.07h20.136v2.826
				c-4.328,0.174-6.288,0.808-6.288,4.559v12.923h24.114V31.455c0-3.75-1.962-4.385-6.288-4.559V24.07h20.137v2.826
				c-4.327,0.174-6.288,0.808-6.288,4.559v30.231c0,3.75,1.962,4.385,6.288,4.558v2.826H360.22v-2.826
				c4.327-0.173,6.288-0.808,6.288-4.558V47.839z"/>
			<path id="XMLID_113_" style="fill:#001A96;" d="M410.966,50.032v1.731h-22.039c0,7.558,3.519,12.231,10.788,12.231
				c4.442,0,7.559-2.077,9.462-4.442l1.846,0.865c-1.386,4.5-5.424,9.231-13.616,9.231c-9.229,0-14.942-6.404-14.942-14.999
				c0-10.155,6.69-16.963,15.576-16.963C406.524,37.685,410.966,43.051,410.966,50.032z M389.102,48.763h14.768
				c0-4.155-2.424-7.385-7.212-7.385C392.388,41.378,389.679,44.436,389.102,48.763z"/>
			<path id="XMLID_111_" style="fill:#001A96;" d="M425.516,46.743c2.826-5.423,5.423-9.059,9.806-9.059
				c1.384,0,2.25,0.347,2.826,0.809v6.172h-2.19c-3.693,0-6.807,0.751-10.442,4.731V63.07c0,2.827,1.441,3.001,5.539,3.462v2.538
				h-16.848v-2.538c2.654-0.346,4.385-0.635,4.385-3.289V44.378l-4.098-2.251V40.57l9.232-2.942h2.078L425.516,46.743z"/>
			<path id="XMLID_108_" style="fill:#001A96;" d="M439.6,54.244c0-10.155,7.559-16.56,16.732-16.56
				c9.349,0,15.637,6.52,15.637,15.405c0,10.154-7.616,16.558-16.79,16.558C445.832,69.647,439.6,63.129,439.6,54.244z
				 M464.583,55.109c0-7.731-3.52-13.731-9.866-13.731c-5.364,0-7.789,4.557-7.789,10.846c0,7.73,3.578,13.73,9.868,13.73
				C462.16,65.954,464.583,61.455,464.583,55.109z"/>
		</g>
	</g>
	<path style="fill:#001A96;" d="M44.537,12.689L0,0v74.41L44.537,90l44.536-15.59V0L44.537,12.689z M60.486,69.07L44.537,59.057
		L28.589,69.07l4.595-18.263L18.733,38.734l18.786-1.274l7.019-17.475l7.017,17.475l18.788,1.274L55.889,50.807L60.486,69.07z"/>
</g>
</svg>
