<svg xmlns="http://www.w3.org/2000/svg" viewBox="0 0 567.46 99.3">
  <defs>
    <style>
      .cls-1 {
        fill: #ee2825;
      }
    </style>
  </defs>
  <title>minute-logo</title>
  <g id="Layer_2" data-name="Layer 2">
    <g id="Layer_2-2" data-name="Layer 2">
      <g>
        <g>
          <polygon class="cls-1" points="150.64 40.22 135.91 19.98 125.69 19.98 125.69 67.05 134.57 67.05 134.57 32.83 149.56 53.33 151.31 53.33 166.64 32.89 166.64 67.05 175.51 67.05 175.51 19.98 165.36 19.98 150.64 40.22"/>
          <path class="cls-1" d="M182.51,24.49c0,6.39,9.68,6.39,9.68,0S182.51,18.1,182.51,24.49Z"/>
          <rect class="cls-1" x="183.25" y="33.7" width="8.2" height="33.28"/>
          <path class="cls-1" d="M217.41,33.3c-4.17,0-7.53,1.68-10.89,5L206,33.77h-7.33V67h8.14V50c0-5,3.43-9.28,8.47-9.28,5.24,0,8,3.83,8,8.88V67h8.2V49.57C231.46,39.15,225.21,33.3,217.41,33.3Z"/>
          <path class="cls-1" d="M262.06,50.78c0,5-3.43,9.28-8.47,9.28-5.25,0-8-3.83-8-8.87V33.83h-8.2V51.25c0,10.29,5.78,16.27,13.72,16.27,4.64,0,7.8-1.61,11.23-5l.54,4.51h7.33V33.83h-8.14Z"/>
          <path class="cls-1" d="M293.26,60c-2.56,0-4.3-1.55-4.3-4.71V41h9.21V33.9H289V24.49l-8.2.87V33.9h-6.19V41h6.19V55.28c0,8.27,4.71,12.37,11.9,12.1A18.34,18.34,0,0,0,299.51,66l-2.29-7A9.37,9.37,0,0,1,293.26,60Z"/>
          <path class="cls-1" d="M320.43,32.83c-10.76,0-17.62,7.26-17.62,17.35,0,10.62,6.79,17.68,18.22,17.68,5,0,10.76-1.75,14.26-5.38L330,57.3c-1.88,2-5.85,3.09-8.88,3.09-5.78,0-9.35-3-9.88-7.06h25.89C338.45,39.68,331.52,32.83,320.43,32.83Zm-9,13.72c1.21-4.3,4.84-6.46,9.28-6.46,4.71,0,8.07,2.15,8.61,6.46Z"/>
          <path class="cls-1" d="M376.3,38.2c-5.65-.67-10.49-1.82-10.49-5.92,0-3.5,3.16-6.25,9.75-6.25,5.11,0,9.55,2.56,11.16,5.25l7.06-3.63c-3.56-7.26-11.16-9.35-18.49-9.35-8.67.07-18.22,4-18.22,13.72,0,10.56,8.88,13.11,18.49,14.25,6.25.67,10.89,2.49,10.89,6.93,0,5.11-5.24,7.06-10.83,7.06S364.47,58,362.39,52.8L355,56.63c3.5,8.61,10.89,11.57,20.51,11.57,10.49,0,19.77-4.51,19.77-15C395.27,42,386.12,39.41,376.3,38.2Z"/>
          <path class="cls-1" d="M417.19,60.12c-5.11,0-9.41-3.36-9.41-9.68,0-5.78,4-9.82,9.55-9.82A10.07,10.07,0,0,1,424,43.25l5.18-5.45a15.74,15.74,0,0,0-12-4.91c-9.62,0-17.62,5.78-17.62,17.55S407.57,68,417.19,68A17.06,17.06,0,0,0,430,62.75l-5.51-5.38A10,10,0,0,1,417.19,60.12Z"/>
          <path class="cls-1" d="M452.15,33.36a12.24,12.24,0,0,0-10.35,5V19.92h-8.2V67h8.2V50c0-5,3.36-9.08,8.2-9.08,4.37,0,7.53,2.56,7.53,8.61V67h8.2V49.5C465.74,39.75,461.57,33.36,452.15,33.36Z"/>
          <path class="cls-1" d="M488.26,33.16c-10.56,0-17.15,7.8-17.15,17.28s6.45,17.28,17.21,17.28S505.61,60,505.61,50.44,498.82,33.16,488.26,33.16Zm.07,27c-6,0-9-4.71-9-9.75s3.09-9.82,9-9.82c5.51,0,9,4.84,9,9.82S494.32,60.19,488.33,60.19Z"/>
          <path class="cls-1" d="M526.86,33.16c-10.56,0-17.15,7.8-17.15,17.28s6.46,17.28,17.21,17.28S544.21,60,544.21,50.44,537.42,33.16,526.86,33.16Zm.07,27c-6,0-9-4.71-9-9.75s3.09-9.82,9-9.82c5.51,0,9,4.84,9,9.82S532.91,60.19,526.93,60.19Z"/>
          <rect class="cls-1" x="549.86" y="19.98" width="8.14" height="47"/>
        </g>
        <g>
          <path class="cls-1" d="M96.17,48.43H93.49a1.72,1.72,0,1,0,0,3.44h2.68a1.72,1.72,0,1,0,0-3.44Z"/>
          <path class="cls-1" d="M4.4,48.43H1.72a1.72,1.72,0,1,0,0,3.44H4.4a1.72,1.72,0,1,0,0-3.44Z"/>
          <path class="cls-1" d="M48.95,93.06a1.72,1.72,0,0,0-1.72,1.72v2.52a1.72,1.72,0,1,0,3.44,0V94.78A1.72,1.72,0,0,0,48.95,93.06Z"/>
          <path class="cls-1" d="M74.05,90.19l-1.34-2.32a1.72,1.72,0,0,0-3,1.72l1.34,2.32a1.72,1.72,0,0,0,3-1.72Z"/>
          <path class="cls-1" d="M90.71,72.28l-2.32-1.34a1.72,1.72,0,0,0-2.35.63,1.72,1.72,0,0,0,.63,2.35L89,75.26a1.72,1.72,0,0,0,1.72-3Z"/>
          <path class="cls-1" d="M91.34,25.68A1.72,1.72,0,0,0,89,25l-2.32,1.34a1.72,1.72,0,1,0,1.72,3L90.71,28a1.72,1.72,0,0,0,.63-2.35Z"/>
          <path class="cls-1" d="M74.18,8.74A1.72,1.72,0,0,0,71,8.41l-1.28,2.36a1.72,1.72,0,0,0,.69,2.33h0a1.72,1.72,0,0,0,2.33-.7L74,10A1.71,1.71,0,0,0,74.18,8.74Z"/>
          <path class="cls-1" d="M27.54,87.24h0a1.72,1.72,0,0,0-2.35.63l-1.34,2.32a1.72,1.72,0,0,0,.63,2.35,1.7,1.7,0,0,0,.86.23,1.74,1.74,0,0,0,.45-.06,1.71,1.71,0,0,0,1-.8l1.34-2.32A1.72,1.72,0,0,0,27.54,87.24Z"/>
          <path class="cls-1" d="M11.86,71.56a1.72,1.72,0,0,0-2.35-.63L7.19,72.28a1.72,1.72,0,0,0,1.72,3l2.33-1.34A1.72,1.72,0,0,0,11.86,71.56Z"/>
          <path class="cls-1" d="M11.23,26.39,8.91,25a1.73,1.73,0,0,0-2.35.63A1.72,1.72,0,0,0,7.19,28l2.32,1.34a1.7,1.7,0,0,0,.86.23,1.74,1.74,0,0,0,.45-.06,1.72,1.72,0,0,0,.42-3.15Z"/>
          <path class="cls-1" d="M28.15,10.77,26.88,8.41a1.72,1.72,0,0,0-3,1.63l1.28,2.36h0a1.72,1.72,0,0,0,3-1.64Z"/>
          <path class="cls-1" d="M68.49,21.42a5.52,5.52,0,0,0-6.18,9.14,23.91,23.91,0,1,1-13.36-4.08A5.52,5.52,0,0,0,54.46,21V5.52a5.52,5.52,0,1,0-11,0V15.88a34.94,34.94,0,1,0,25.06,5.54Z"/>
          <circle class="cls-1" cx="4.64" cy="38.09" r="1.11"/>
          <circle class="cls-1" cx="93.28" cy="38.09" r="1.11"/>
          <circle class="cls-1" cx="4.64" cy="62.34" r="1.11"/>
          <circle class="cls-1" cx="93.28" cy="62.34" r="1.11"/>
          <circle class="cls-1" cx="15.99" cy="82.29" r="1.11"/>
          <circle class="cls-1" cx="81.94" cy="82.29" r="1.11"/>
          <circle class="cls-1" cx="61.47" cy="94.28" r="1.11"/>
          <circle class="cls-1" cx="36.44" cy="94.28" r="1.11"/>
          <circle class="cls-1" cx="15.99" cy="18.14" r="1.11"/>
          <circle class="cls-1" cx="81.94" cy="18.14" r="1.11"/>
          <circle class="cls-1" cx="35.26" cy="6.31" r="1.11"/>
          <circle class="cls-1" cx="62.85" cy="6.31" r="1.11"/>
        </g>
        <g>
          <path class="cls-1" d="M125.71,82.37h7.09a6.12,6.12,0,0,1,4.35,1.47,3.7,3.7,0,0,1,1.07,2.66v0a4,4,0,0,1-2.64,3.85c2,.6,3.57,1.74,3.57,4v0c0,2.85-2.4,4.54-6,4.54h-7.39Zm10.6,4.4c0-1.64-1.31-2.71-3.68-2.71h-5.06v5.73h4.92c2.26,0,3.83-1,3.83-3Zm-3.49,4.68h-5.25v5.87h5.59c2.52,0,4.09-1.12,4.09-3v0C137.24,92.5,135.72,91.45,132.82,91.45Z"/>
          <path class="cls-1" d="M149,92.9v0c0-3.54,2.5-6.4,5.9-6.4,3.64,0,5.73,2.9,5.73,6.49a4.68,4.68,0,0,1,0,.59h-9.75a4.29,4.29,0,0,0,4.33,4.16A5.09,5.09,0,0,0,159,96l1.14,1a6.35,6.35,0,0,1-5.06,2.31A6.11,6.11,0,0,1,149,92.9Zm9.77-.71C158.53,90,157.25,88,154.8,88c-2.14,0-3.76,1.78-4,4.18Z"/>
          <path class="cls-1" d="M171.57,95.76V88.34h-1.71V86.72h1.71V83h1.83v3.71h3.9v1.62h-3.9v7.18a1.82,1.82,0,0,0,2.07,2,3.84,3.84,0,0,0,1.78-.43V98.7a4.59,4.59,0,0,1-2.21.52A3.13,3.13,0,0,1,171.57,95.76Z"/>
          <path class="cls-1" d="M188.32,95.76V88.34h-1.71V86.72h1.71V83h1.83v3.71H194v1.62h-3.9v7.18a1.82,1.82,0,0,0,2.07,2,3.84,3.84,0,0,0,1.78-.43V98.7a4.59,4.59,0,0,1-2.21.52A3.13,3.13,0,0,1,188.32,95.76Z"/>
          <path class="cls-1" d="M203.3,92.9v0c0-3.54,2.5-6.4,5.9-6.4,3.64,0,5.73,2.9,5.73,6.49a4.68,4.68,0,0,1,0,.59h-9.75a4.29,4.29,0,0,0,4.33,4.16A5.09,5.09,0,0,0,213.36,96l1.14,1a6.35,6.35,0,0,1-5.06,2.31A6.11,6.11,0,0,1,203.3,92.9Zm9.77-.71C212.88,90,211.6,88,209.15,88c-2.14,0-3.76,1.78-4,4.18Z"/>
          <path class="cls-1" d="M225.28,86.72h1.83v3.21a5.26,5.26,0,0,1,5-3.42v2H232c-2.69,0-4.87,1.92-4.87,5.63V99h-1.83Z"/>
          <path class="cls-1" d="M256.63,82.37h1.9l6.06,9.08,6.06-9.08h1.9V99h-1.88V85.53l-6.06,8.92h-.1l-6.06-8.89V99h-1.83Z"/>
          <path class="cls-1" d="M283.18,95.45v0c0-2.59,2.14-4,5.25-4a13,13,0,0,1,3.78.52v-.43c0-2.21-1.36-3.35-3.66-3.35a8.56,8.56,0,0,0-3.73.9l-.55-1.5a10.15,10.15,0,0,1,4.47-1,5.39,5.39,0,0,1,4,1.36A4.85,4.85,0,0,1,294,91.5V99h-1.76V97.16a5.39,5.39,0,0,1-4.45,2.12C285.49,99.28,283.18,98,283.18,95.45Zm9.06-1V93.31a12.82,12.82,0,0,0-3.61-.52c-2.31,0-3.59,1-3.59,2.54v0c0,1.54,1.43,2.45,3.09,2.45C290.38,97.82,292.24,96.45,292.24,94.5Z"/>
          <path class="cls-1" d="M305,86.72h1.83v3.21a5.26,5.26,0,0,1,5-3.42v2h-.14c-2.69,0-4.87,1.92-4.87,5.63V99H305Z"/>
          <path class="cls-1" d="M321.78,81.66h1.83v12l6.63-6.92h2.28L327.37,92l5.32,7h-2.19l-4.4-5.73-2.5,2.52V99h-1.83Z"/>
          <path class="cls-1" d="M341.43,97.45l.93-1.31a7.19,7.19,0,0,0,4.26,1.57c1.47,0,2.54-.76,2.54-2v0c0-1.24-1.45-1.71-3.07-2.16C344.17,93,342,92.33,342,90.07v0c0-2.12,1.76-3.52,4.18-3.52a8.4,8.4,0,0,1,4.42,1.36l-.83,1.38a7,7,0,0,0-3.64-1.19c-1.45,0-2.38.76-2.38,1.78v0c0,1.17,1.52,1.62,3.16,2.12,1.9.57,3.95,1.31,3.95,3.52v0c0,2.33-1.93,3.68-4.37,3.68A8.45,8.45,0,0,1,341.43,97.45Z"/>
          <path class="cls-1" d="M376.18,82.37h1.88V99h-1.88Z"/>
          <path class="cls-1" d="M389.77,86.72h1.83v2.14a4.65,4.65,0,0,1,4.21-2.4c3,0,4.71,2,4.71,4.92V99h-1.83V91.83c0-2.28-1.24-3.71-3.4-3.71A3.62,3.62,0,0,0,391.6,92v7h-1.83Z"/>
          <path class="cls-1" d="M426.14,82.37H428l6.06,9.08,6.06-9.08h1.9V99h-1.88V85.53l-6.06,8.92H434L428,85.56V99h-1.83Z"/>
          <path class="cls-1" d="M453.66,82h2.09v2h-2.09Zm.12,4.71h1.83V99h-1.83Z"/>
          <path class="cls-1" d="M467,86.72h1.83v2.14a4.65,4.65,0,0,1,4.21-2.4c3,0,4.71,2,4.71,4.92V99h-1.83V91.83c0-2.28-1.24-3.71-3.4-3.71A3.62,3.62,0,0,0,468.83,92v7H467Z"/>
          <path class="cls-1" d="M488.6,94.35V86.72h1.83V93.9c0,2.28,1.24,3.71,3.4,3.71a3.63,3.63,0,0,0,3.69-3.85v-7h1.81V99h-1.81V96.87a4.68,4.68,0,0,1-4.21,2.4C490.34,99.28,488.6,97.28,488.6,94.35Z"/>
          <path class="cls-1" d="M511.22,95.76V88.34h-1.71V86.72h1.71V83h1.83v3.71H517v1.62h-3.9v7.18a1.82,1.82,0,0,0,2.07,2,3.84,3.84,0,0,0,1.78-.43V98.7a4.6,4.6,0,0,1-2.21.52A3.13,3.13,0,0,1,511.22,95.76Z"/>
          <path class="cls-1" d="M526.21,92.9v0c0-3.54,2.5-6.4,5.9-6.4,3.64,0,5.73,2.9,5.73,6.49a4.68,4.68,0,0,1,0,.59h-9.75a4.29,4.29,0,0,0,4.33,4.16A5.09,5.09,0,0,0,536.26,96l1.14,1a6.35,6.35,0,0,1-5.07,2.31A6.11,6.11,0,0,1,526.21,92.9Zm9.77-.71C535.79,90,534.5,88,532.06,88c-2.14,0-3.76,1.78-4,4.18Z"/>
          <path class="cls-1" d="M547.16,97.45l.93-1.31a7.19,7.19,0,0,0,4.26,1.57c1.47,0,2.54-.76,2.54-2v0c0-1.24-1.45-1.71-3.07-2.16-1.93-.55-4.07-1.21-4.07-3.47v0c0-2.12,1.76-3.52,4.18-3.52a8.4,8.4,0,0,1,4.42,1.36l-.83,1.38a7,7,0,0,0-3.64-1.19c-1.45,0-2.38.76-2.38,1.78v0c0,1.17,1.52,1.62,3.16,2.12,1.9.57,3.95,1.31,3.95,3.52v0c0,2.33-1.93,3.68-4.37,3.68A8.45,8.45,0,0,1,547.16,97.45Z"/>
        </g>
        <g>
          <path class="cls-1" d="M559.89,82.26h-1.57v-.49H562v.49h-1.57v4.19h-.53Z"/>
          <path class="cls-1" d="M563,81.77h.53l1.7,2.55,1.7-2.55h.53v4.68h-.53V82.66l-1.7,2.5h0l-1.7-2.5v3.78H563Z"/>
        </g>
      </g>
    </g>
  </g>
</svg>
