<svg xmlns="http://www.w3.org/2000/svg" viewBox="0 0 359.98 191.97">
  <defs>
    <style>
      .cls-1 {
        fill: #fff;
      }

      .cls-2 {
        fill: #231f20;
      }

      .cls-3 {
        fill: #f6d823;
      }
    </style>
  </defs>
  <title>Asset 1</title>
  <g id="Layer_2" data-name="Layer 2">
    <g id="Layer_1-2" data-name="Layer 1">
      <polygon class="cls-1" points="347.71 108.11 347.71 12.04 12.29 12.04 12.29 179.92 276.18 179.92 347.71 108.11"/>
      <g>
        <path d="M360,96.21,348,108.29l-.33-.17V12H12.29V179.92H276.18c-.46.52-.7.83-1,1.12L265.28,191a12.22,12.22,0,0,0-.82,1H0V0H360Q360,48.09,360,96.21Z"/>
        <path d="M114.76,85.2v4.05l1.83-1.77c3.32-3.16,7.24-3.73,11.45-2.39,4,1.25,5.91,4.27,6.59,8.22a12.06,12.06,0,0,1,.22,2q0,10.31,0,20.63v.88h-9.1v-1.29q0-8.33,0-16.67a6.47,6.47,0,0,0-1.41-4.46c-1.56-1.78-3.6-1.93-5.72-1.4-2.3.58-3.35,2.3-3.69,4.52a18.86,18.86,0,0,0-.17,2.74c0,5.47,0,10.95,0,16.52h-9V85.2Z"/>
        <path d="M298.19,116.88h-9v-1.3c0-5.44,0-10.88,0-16.32a11.85,11.85,0,0,0-.19-2c-.53-3-2.33-4.5-5.28-4.47a5.08,5.08,0,0,0-5.34,4.63,13.9,13.9,0,0,0-.15,2c0,5.76,0,11.51,0,17.37h-9.07V85.18h9v4.06l1.71-1.66a11,11,0,0,1,15.61.15A10.63,10.63,0,0,1,298.24,95c.11,7.16,0,14.32.05,21.47A2.38,2.38,0,0,1,298.19,116.88Z"/>
        <path d="M163.14,106.53l5.3,5.25c-3.38,4.91-11.17,7.17-17.86,5.2a16.36,16.36,0,0,1-11.65-14.58c-.43-8.41,4.37-14.58,10.66-16.89,6.71-2.46,14.77-.62,18.76,4.4l-5.52,5.95c-.57-.52-1-1-1.56-1.42a8.18,8.18,0,0,0-9.05-1.25,9,9,0,0,0-4.29,8.51,9.36,9.36,0,0,0,2.2,5.57c2.87,3.17,7.67,3.4,11.4.56C162.09,107.4,162.63,106.94,163.14,106.53Z"/>
        <path d="M170.34,137.49c1.53,0,3,0,4.39,0,.28,0,.67.48.78.81q3.5,10.56,6.94,21.13c.23.72.49,1.43.82,2.4.79-2.33,1.51-4.44,2.21-6.54,1.86-5.6,3.74-11.2,5.56-16.81.29-.89.66-1.26,1.66-1.23,2.63.08,2.63,0,3.47,2.51l7.06,21c.1.29.23.57.41,1l4.91-14.94c.93-2.84,1.9-5.67,2.78-8.53.21-.66.48-.89,1.16-.86,1.28.05,2.55,0,4,0-1,2.92-2,5.73-3,8.54-2.47,7.08-5,14.15-7.4,21.24a1.46,1.46,0,0,1-1.67,1.21c-2.88-.08-2.87,0-3.79-2.74q-3.41-10.08-6.85-20.16c-.09-.25-.2-.49-.43-1-.68,2-1.28,3.66-1.87,5.36-2,5.85-4,11.69-6,17.54a1.24,1.24,0,0,1-1.41,1c-3.08,0-3.09,0-4.08-2.83q-4.7-13.5-9.37-27C170.54,138.3,170.47,138,170.34,137.49Z"/>
        <path d="M217.48,77.05v8H225v7.74h-7.33a5.62,5.62,0,0,0-.12.79c0,4.24,0,8.48,0,12.72,0,2.31,1,3.19,3.26,3.1a10.46,10.46,0,0,0,2.12-.33c.64-.16,1.26-.44,2-.71,0,2.3,0,4.5,0,6.69a1.23,1.23,0,0,1-.59.89,13.7,13.7,0,0,1-11.58.6c-2.69-1.08-3.86-3.45-4.07-6.17-.24-3.06-.18-6.15-.22-9.22,0-2.71,0-5.43,0-8.28h-3.67V85.12h3.62V77.05Z"/>
        <path d="M65.65,22.76h4.63V40.32c.42-.51.69-.81.95-1.14,3.1-4,8.17-5.49,13.38-4a10.37,10.37,0,0,1,7.75,10c.29,6.14.15,12.3.2,18.46,0,.75,0,1.5,0,2.33H87.84V64.7c0-5.52,0-11,0-16.55a13.61,13.61,0,0,0-.37-3.2c-1-3.85-3.81-6-7.87-6a8.7,8.7,0,0,0-8.78,6.26,15.13,15.13,0,0,0-.51,3.89c-.06,5.16,0,10.31,0,15.47v1.4H65.65Z"/>
        <path d="M65.89,85.17h9v5.29A45.66,45.66,0,0,1,79.09,86,8,8,0,0,1,85,84.51V94c-.8.06-1.55,0-2.29.18-4.61.81-7.41,3.92-7.64,8.78-.19,4.15-.14,8.31-.19,12.46,0,.47,0,.94,0,1.47h-9Z"/>
        <path d="M59.68,24.56v4.35H45.85V66H41.07V29H27.17v-4.4Z"/>
        <path d="M91,85.17h9v31.68H91Z"/>
        <path d="M107.9,162.77l3.45-8.44c2.16-5.28,4.33-10.55,6.45-15.85.3-.74.63-1.06,1.47-1,1.27.08,2.55,0,4,0-.77,1.81-1.49,3.49-2.21,5.16-3.56,8.24-7.13,16.47-10.66,24.72a1.51,1.51,0,0,1-1.67,1.1c-3-.06-3,0-4.14-2.77q-5.76-13.42-11.53-26.83c-.17-.4-.33-.8-.57-1.38,1.67,0,3.21-.05,4.74,0,.3,0,.65.6.81,1q4.62,11.3,9.19,22.62Z"/>
        <path d="M129.18,168.12V137.55h4.55v30.57Z"/>
        <path d="M90.7,81.54V73.67h9.47v7.87Z"/>
        <path d="M128.9,130.75v-4.94h5.17v4.94Z"/>
        <path d="M36.73,104.54c2.25,0,4.4.09,6.54,0a34.45,34.45,0,0,0,5.93-.69,14.43,14.43,0,0,0,8.41-22.91c-3.06-4-7.41-5.43-12.22-5.53-5.59-.12-11.19,0-16.79,0-.34,0-.68,0-1,.07v41.39h9.16Zm0-21c3.26.14,6.51,0,9.67.47s4.87,3.09,4.68,6.39a6.14,6.14,0,0,1-5.89,5.73c-2.78.17-5.58,0-8.46,0Z"/>
        <path d="M259.33,90.4c-4.21-4.92-9.76-6.49-16.09-5.72a16.62,16.62,0,0,0-14.17,20c1.74,7.81,8.42,13,16.76,13.08,1.23-.13,2.48-.17,3.68-.42,6.12-1.27,10.57-4.7,12.7-10.63A15.65,15.65,0,0,0,259.33,90.4ZM254,102.83a7.63,7.63,0,0,1-5.87,6.69c-5.48,1.45-10.43-2.61-10.43-10a7.54,7.54,0,0,1,4.32-6.29,7.77,7.77,0,0,1,8.5.57C253.66,96,254.62,99.22,254,102.83Z"/>
        <path d="M177.75,87.42A16.09,16.09,0,0,0,171.24,100c-.34,6.64,1.93,12.16,7.94,15.5a17.58,17.58,0,0,0,16.57.43,13.85,13.85,0,0,0,5.16-4.23l-5.2-4.59c-3.6,3.15-7.54,4.44-12,2.15-1.95-1-2.9-2.78-3.37-5h21.87c.49-1.55.47-3.75-.14-7C199.35,83.1,184.88,82,177.75,87.42Zm2.54,11a6.76,6.76,0,0,1,6.53-6.55c3.6-.07,6.29,2.53,6.67,6.55Z"/>
        <path d="M51.53,150.67C60.18,148,63.35,138,57.61,131.3c-2.71-3.17-6.44-4.44-10.46-4.56-6.31-.18-12.63-.09-18.95-.11-.2,0-.39,0-.72.07v41.42h4.76v-16h1.27c3.08,0,6.16,0,9.23,0a2.11,2.11,0,0,1,2,1c3.53,4.8,7.1,9.56,10.67,14.32.24.32.62.76.95.77,1.77.08,3.54,0,5.54,0l-12.68-16.9C50.09,151.07,50.82,150.89,51.53,150.67ZM32.3,147.79v-17c5.57.23,11,.24,16.48.76a7.1,7.1,0,0,1,6.48,5.58,7.74,7.74,0,0,1-4.05,9.19,14.06,14.06,0,0,1-5.26,1.41C41.44,147.92,36.92,147.79,32.3,147.79Z"/>
        <path d="M126.89,46.26c-2.9-12.86-15.65-13.76-22.12-9a15.82,15.82,0,0,0-6.44,12.55C97.82,60,105.18,67.17,114.4,66.77A15.94,15.94,0,0,0,126.35,61l-2.86-2.54c-5.44,4.49-10.2,5.48-14.76,3.06-3.54-1.88-5.19-5-5.66-9h24.5A55.68,55.68,0,0,0,126.89,46.26ZM103.26,48.9c-.54-4.63,4.12-9.89,9.08-10.28,5.45-.43,10.08,4.16,10.26,10.28Z"/>
        <path d="M81.86,137.33a13.77,13.77,0,0,0-14.35,4c-3.67,3.92-4.78,8.7-4.19,14a15.26,15.26,0,0,0,10.83,13c6.25,1.78,13.25-.36,17-5.27l-2.82-2.54c-4.26,4.09-9.05,5.71-14.58,3.13-3.73-1.74-5.33-5-5.86-9.08H92.18a17.87,17.87,0,0,0-.55-6.76C90.24,142.63,87.25,138.75,81.86,137.33ZM68,151c.64-6.42,5-10.47,10.81-10.19,4.65.22,8.61,4.86,8.62,10.19Z"/>
        <path d="M168.91,154.57a56.15,56.15,0,0,0-.75-6.37c-1.24-5.34-4.22-9.33-9.71-10.82a13.9,13.9,0,0,0-14.56,4.05c-4.7,4.94-5.65,13.68-2.21,19.8a15.44,15.44,0,0,0,17.25,7.32,16.12,16.12,0,0,0,8.76-5.42l-2.89-2.58c-5.17,5.32-11.49,5-15.14,2.88-3.05-1.8-5.57-6.14-5-8.85Zm-24.48-3.52c.38-3.5,1.67-6.44,4.5-8.49a8.76,8.76,0,0,1,9.93-.61c3.45,1.91,4.68,5.23,5.14,9.1Z"/>
        <path d="M222.74,137.49a5.94,5.94,0,0,0-6,5.92,5.82,5.82,0,0,0,5.89,5.84,5.88,5.88,0,1,0,.08-11.76Zm-.12,11.1a5.2,5.2,0,0,1,.23-10.4,5.08,5.08,0,0,1,5.07,5.24A5.16,5.16,0,0,1,222.62,148.59Z"/>
        <path class="cls-2" d="M223.92,143.77l.18,0h0a2,2,0,0,0,1.38-1.37,1.9,1.9,0,0,0-.4-1.79,2.2,2.2,0,0,0-1.69-.74c-.69,0-1.39,0-2.07,0h-.91l-.16,0v6.57h1v-2.45h1.49a.2.2,0,0,1,.19.1c.54.73,1.09,1.46,1.63,2.19a.35.35,0,0,0,.24.17h1.1Zm0-.95a2,2,0,0,1-.76.2c-.49,0-1,0-1.48,0h-.47v-2.34l.62,0c.61,0,1.18,0,1.76.09a1,1,0,0,1,.88.76A1.05,1.05,0,0,1,224,142.82Z"/>
        <polygon class="cls-3" points="359.98 95.97 264.32 191.97 359.98 191.97 359.98 95.97"/>
      </g>
    </g>
  </g>
</svg>
