<svg xmlns="http://www.w3.org/2000/svg" viewBox="0 0 504 89.97">
  <defs>
    <style>
      .cls-1 {
        fill: #ee3224;
      }
    </style>
  </defs>
  <title>soctiabank-logo</title>
  <g id="Layer_2" data-name="Layer 2">
    <g id="Layer_1-2" data-name="Layer 1">
      <g>
        <path class="cls-1" d="M207.69,60.73c5,0,8-4.42,8-9.67s-2.82-9.74-8-9.74c-5.4,0-8,4.41-8,9.74s3,9.67,8,9.67m0,8.91c-12.06,0-20.7-7.24-20.7-18.58s8.95-18.65,20.7-18.65S228.4,39.8,228.4,51.05,219.69,69.64,207.69,69.64Z"/>
        <path class="cls-1" d="M356.22,51.06c0-4.76-2.71-9-7.45-9-4.16,0-7.52,3.56-7.52,9,0,5.27,2.75,9,7.52,9,4.3,0,7.45-3.58,7.45-9M329.07,68.88V18.65h12.37V35.86h.14a19.31,19.31,0,0,1,10.75-3.42c9.63,0,16.71,7.74,16.71,18,0,12.8-7.85,19.25-16.79,19.25-6.76,0-10.19-3.15-11-4.06H341l-.18,3.26Z"/>
        <path class="cls-1" d="M268.82,15.26a7,7,0,1,0,7,7,7,7,0,0,0-7-7m-6.21,18H275V69H262.61Z"/>
        <path class="cls-1" d="M422,68.91h12.05V50.51c0-4.31,2.86-7.26,6.51-7.26,4.18,0,6.55,2.72,6.55,7.26v18.4h12.06V47.46c0-8.07-5.2-15-14.73-15a15.37,15.37,0,0,0-11.2,4.82H433l-.12-3.95H422V68.91"/>
        <polyline class="cls-1" points="466.78 68.91 479.14 68.91 479.14 52.42 479.27 52.42 490.25 68.91 504 68.91 490.75 50.03 503.66 33.33 489.93 33.33 479.27 48.02 479.14 48.02 479.14 18.69 466.78 18.69 466.78 68.91"/>
        <path class="cls-1" d="M183.84,33.83A29.88,29.88,0,0,0,175,32.4c-11.17,0-19.53,7-19.53,18.62,0,10.58,7.52,18.62,19,18.62a29.83,29.83,0,0,0,9.34-1.55l-.6-10.39A14.63,14.63,0,0,1,177,59.55,8.29,8.29,0,0,1,168.31,51c0-5.23,3.91-8.6,8.8-8.6a14.08,14.08,0,0,1,6.13,1.74l.6-10.33"/>
        <path class="cls-1" d="M293.7,50.73c0,5.89,3.29,9.57,7.55,9.57,3.86,0,7.62-3.61,7.62-9.09s-3.33-9.3-7.62-9.3-7.55,4-7.55,8.81m27.38-17.45V68.9H309l-.18-3.59h-.26c-1.33,1.2-4.11,4.38-11.88,4.38-8.61,0-16.14-7.48-16.14-18.63,0-10.34,6.68-18.6,16.94-18.6,7,0,9.82,3.07,10.89,4h.32l.12-3.22Z"/>
        <path class="cls-1" d="M386.6,50.71c0,5.89,3.29,9.58,7.55,9.58,3.85,0,7.62-3.61,7.62-9.09s-3.33-9.29-7.62-9.29c-4.44,0-7.55,4-7.55,8.81M414,33.27V68.89h-12l-.18-3.6h-.26c-1.33,1.2-4.12,4.38-11.88,4.38-8.61,0-16.15-7.49-16.15-18.63,0-10.35,6.69-18.61,16.94-18.61,7,0,9.82,3.08,10.89,4.05h.32l.12-3.22Z"/>
        <path class="cls-1" d="M115.69,67.58a52,52,0,0,0,14.31,2c10.57,0,21.12-3.74,21.12-15.35,0-15.94-22-13.73-22-20.08,0-3.25,3.38-4,6.68-4,4.59,0,10.4,2.2,11.69,2.73l1-11a43,43,0,0,0-12.64-1.71c-10.44,0-20.74,4.08-20.74,14.42,0,15.65,21.91,12.39,21.91,20.6,0,3.16-3.15,4.36-7.18,4.36-5.53,0-10.73-2.77-13-3.77l-1.21,11.72"/>
        <path class="cls-1" d="M256.61,59.19a15.55,15.55,0,0,1-3.43.6c-2.51,0-5.25-1.18-5.25-5.53v-12h7.79v-9h-7.79V21.8H235.53V33.27h-5.42v9h5.42V56.31c0,7.75,3.6,13.3,12.77,13.3a37,37,0,0,0,6.78-.67l1.53-9.75"/>
        <path class="cls-1" d="M72,45c.31,15.38-13.59,27-25.21,27H18L0,90H46.43c14.82,0,29-13.33,29-29.26C75.47,56,74.91,50,72,45.33V45M67,56.35a23.82,23.82,0,0,0,2.89-10.14h-13a31.72,31.72,0,0,1-1.72,10.14Zm-12.71,2A30.47,30.47,0,0,1,45.9,69.7c6.62,0,14.19-2.89,19.72-11.33Zm-1.48-2a40.84,40.84,0,0,0,2-10.14H35.13a40.94,40.94,0,0,0,2,10.14Zm-18,0a32.75,32.75,0,0,1-1.79-10.14h-13a26.43,26.43,0,0,0,2.88,10.14ZM45,67.66A32.18,32.18,0,0,0,52,58.37H38A31.37,31.37,0,0,0,45,67.66ZM24.11,58.37C29.89,66.81,37.45,69.7,44.17,69.7c-3.52-2.67-7.25-7.57-8.45-11.33ZM55.16,34a28.58,28.58,0,0,1,1.72,10.14h13A23.12,23.12,0,0,0,67,34Zm10.46-2.36c-5.53-8.1-13.09-11.3-19.72-11.3a29.16,29.16,0,0,1,8.41,11.3ZM37.14,34a39.3,39.3,0,0,0-2,10.14H54.84a39.3,39.3,0,0,0-2-10.14ZM22.95,34a25.49,25.49,0,0,0-2.88,10.14h13A29.3,29.3,0,0,1,34.88,34ZM45,22.63a30.28,30.28,0,0,0-7,9H52A31.13,31.13,0,0,0,45,22.63Zm-9.29,9c1.2-3.83,4.93-8.73,8.45-11.3-6.72,0-14.29,3.2-20.06,11.3ZM18,44.7C15.13,40.12,14.5,34,14.5,29.35,14.5,13.43,28.73,0,43.54,0H90L72,18.17H43.23C31.68,18.17,17.7,29.89,18,44.7Z"/>
      </g>
    </g>
  </g>
</svg>
